<?xml version="1.0" encoding="UTF-8" standalone="no"?>
<!-- Created with Inkscape (http://www.inkscape.org/) -->

<svg
   xmlns:dc="http://purl.org/dc/elements/1.1/"
   xmlns:cc="http://creativecommons.org/ns#"
   xmlns:rdf="http://www.w3.org/1999/02/22-rdf-syntax-ns#"
   xmlns:svg="http://www.w3.org/2000/svg"
   xmlns="http://www.w3.org/2000/svg"
   xmlns:sodipodi="http://sodipodi.sourceforge.net/DTD/sodipodi-0.dtd"
   xmlns:inkscape="http://www.inkscape.org/namespaces/inkscape"
   width="210mm"
   height="297mm"
   viewBox="0 0 210 297"
   version="1.1"
   id="svg8"
   inkscape:version="0.92.4 (5da689c313, 2019-01-14)"
   sodipodi:docname="characters.svg">
  <defs
     id="defs2" />
  <sodipodi:namedview
     id="base"
     pagecolor="#ffffff"
     bordercolor="#666666"
     borderopacity="1.0"
     inkscape:pageopacity="0.0"
     inkscape:pageshadow="2"
     inkscape:zoom="0.49497475"
     inkscape:cx="-202.89847"
     inkscape:cy="789.86079"
     inkscape:document-units="mm"
     inkscape:current-layer="layer1"
     showgrid="false"
     inkscape:window-width="1920"
     inkscape:window-height="1017"
     inkscape:window-x="-8"
     inkscape:window-y="-8"
     inkscape:window-maximized="1"
     inkscape:snap-global="false" />
  <metadata
     id="metadata5">
    <rdf:RDF>
      <cc:Work
         rdf:about="">
        <dc:format>image/svg+xml</dc:format>
        <dc:type
           rdf:resource="http://purl.org/dc/dcmitype/StillImage" />
        <dc:title></dc:title>
      </cc:Work>
    </rdf:RDF>
  </metadata>
  <g
     inkscape:label="Layer 1"
     inkscape:groupmode="layer"
     id="layer1">
    <g
       id="g4607"
       transform="translate(41.118812,-24.051558)">
      <path
         sodipodi:nodetypes="cccccc"
         inkscape:connector-curvature="0"
         id="path4587"
         d="m 98.6496,14.637123 c -7.638539,12.969668 -6.279664,36.791326 0.307579,58.166216 4.757201,14.8044 19.188771,37.692341 62.310031,8.52776 C 204.38846,52.166538 188.51849,30.251451 176.54918,20.324874 159.16294,6.2537699 137.55907,-3.8754211 122.67799,-1.6142051 112.7762,0.4597629 103.67126,6.2607079 98.6496,14.637123 Z"
         style="fill:#c87137;fill-opacity:1;stroke:#784421;stroke-width:2.64583325;stroke-miterlimit:4;stroke-dasharray:none;stroke-opacity:1" />
      <path
         inkscape:connector-curvature="0"
         id="path4597"
         d="m 108.83364,4.1482589 c -4.14166,2.756535 -7.67306,6.3004741 -10.183892,10.4886791 -3.44485,5.849095 -5.054566,13.909123 -5.18524,22.952684 0.0185,0.0097 0.03685,0.01742 0.05536,0.02743 2.847068,1.752272 4.71286,4.793881 6.220741,7.701529 0.810141,3.454925 -0.201791,7.303075 1.635621,10.572428 0.5793,2.944487 3.08702,7.439707 6.4296,4.308717 2.58104,-3.133838 1.19709,-7.636274 -0.27067,-10.974675 -1.5853,-2.711014 -5.8556,-9.001964 -0.83648,-10.216422 4.48176,0.65709 1.73646,5.864092 3.99572,7.916878 4.01516,0.603435 6.40802,-4.404387 3.32272,-7.167041 0.13158,-4.431605 5.71695,-3.963741 6.37324,0.0035 1.71613,2.922424 2.89061,6.270055 3.20476,9.646526 -0.10937,3.660465 1.82684,7.718735 5.17958,9.35273 3.41824,1.4484 7.02959,-0.656282 9.59856,-2.832937 0.74851,-2.855207 -0.0388,-6.416189 -1.87127,-8.920145 -2.17649,-3.558189 -1.35199,-8.116999 -3.88316,-11.520316 -1.42554,-1.925728 -3.43491,-7.85872 1.02743,-5.926575 3.83173,2.128722 5.11015,6.929792 8.69475,9.06084 3.98012,0.04209 6.12482,-5.717182 3.29858,-8.424008 -1.84451,-2.782975 -4.44276,-5.488788 -5.22754,-8.720761 1.56747,-3.699074 6.59638,-2.239198 9.43315,-1.027909 2.67856,1.69009 3.04576,5.464172 5.81496,7.139379 1.8936,2.126585 3.85831,4.182422 6.65409,5.067717 3.33475,0.953707 8.07287,-2.529788 5.47336,-6.091227 -2.69425,-3.75897 -4.74198,-8.042731 -7.99164,-11.368663 -2.80142,-2.061556 -5.89969,-3.902286 -7.67279,-7.0351241 -0.63074,-1.2393 -0.29583,-2.266551 0.48928,-3.145149 -10.81121,-5.185618 -21.46233,-7.918059 -29.93436,-6.630714 -4.95089,1.036982 -9.70279,3.00609 -13.84446,5.762625 z"
         style="fill:#ff6600;stroke:#aa4400;stroke-width:2.64583325;stroke-linecap:butt;stroke-linejoin:miter;stroke-miterlimit:4;stroke-dasharray:none;stroke-opacity:1" />
      <ellipse
         transform="rotate(-34.072005)"
         ry="10.370924"
         rx="20.113699"
         cy="78.021576"
         cx="87.887337"
         id="path4593"
         style="fill:#ff0000;fill-opacity:1;stroke:#800000;stroke-width:2.64583325;stroke-miterlimit:4;stroke-dasharray:none;stroke-opacity:1" />
    </g>
    <g
       id="g4619"
       transform="translate(4.4570377,109.80843)">
      <path
         inkscape:connector-curvature="0"
         id="path4567"
         d="m -3.8794619,-65.369095 c -19.2387151,11.107583 -25.8303941,35.708062 -14.7229671,54.946878 9.4299522,16.4756804 30.293666,18.6128604 41.146336,30.90617 a 56.661139,84.056259 60 0 0 18.2106,-8.54475 A 56.661139,84.056259 60 0 0 57.269995,0.44498343 C 50.772447,-17.493847 60.066746,-34.518389 51.067409,-50.646126 39.959827,-69.884842 15.359346,-76.476521 -3.8794619,-65.369095 Z"
         style="fill:#afdde9;fill-opacity:1;stroke:#5fbcd3;stroke-width:2.64583325;stroke-miterlimit:4;stroke-dasharray:none;stroke-opacity:1" />
      <path
         inkscape:connector-curvature="0"
         id="path4609"
         d="M 29.482142,17.675594 -4.5357142,-24.657739"
         style="fill:none;stroke:#37abc8;stroke-width:0.79374999;stroke-linecap:butt;stroke-linejoin:miter;stroke-miterlimit:4;stroke-dasharray:none;stroke-opacity:1" />
      <path
         inkscape:connector-curvature="0"
         id="path4611"
         d="M 46.113094,8.6041655 29.104166,-39.776786"
         style="fill:none;stroke:#37abc8;stroke-width:0.79374999;stroke-linecap:butt;stroke-linejoin:miter;stroke-miterlimit:4;stroke-dasharray:none;stroke-opacity:1" />
      <path
         inkscape:connector-curvature="0"
         id="path4613"
         d="m -3.7797618,-24.279763 7.9374999,2.645834 -3.0238095,-12.473214 10.9613094,9.449404 -2.6458333,-15.497023 10.5833333,9.827379 -0.755952,-14.741069 6.803571,11.339284 2.645833,-6.425594"
         style="fill:none;stroke:#6f8a91;stroke-width:0.79374999;stroke-linecap:butt;stroke-linejoin:miter;stroke-miterlimit:4;stroke-dasharray:none;stroke-opacity:1" />
    </g>
    <g
       id="g4651">
      <path
         sodipodi:nodetypes="cccsccccc"
         inkscape:connector-curvature="0"
         id="path4519"
         d="m 43.297664,106.7041 c 3.709422,-9.792531 4.086251,-19.439427 2.138157,-29.666924 L 29.934188,67.415474 c -4.737781,3.81015 -5.815258,4.548254 -7.314098,8.523569 -2.67413,7.092497 4.612501,16.549662 7.581366,20.608816 2.242843,3.585451 4.049386,7.317131 5.612662,11.225321 l -0.267271,5.61266 4.543583,-3.74177 z"
         style="fill:#f9f9f9;stroke:#999999;stroke-width:2.64583333;stroke-linecap:round;stroke-linejoin:round;stroke-miterlimit:4;stroke-dasharray:none;stroke-opacity:1" />
      <path
         sodipodi:nodetypes="ccccc"
         inkscape:connector-curvature="0"
         id="path4523"
         d="M 64.679226,107.50591 C 73.8112,96.479649 84.449491,82.371047 75.370007,68.751823 L 57.19568,77.838986 c -2.624237,10.038492 1.863601,18.744538 3.207234,28.597844 z"
         style="fill:#f9f9f9;stroke:#999999;stroke-width:2.64583333;stroke-linecap:butt;stroke-linejoin:miter;stroke-opacity:1;fill-opacity:1;stroke-miterlimit:4;stroke-dasharray:none" />
      <path
         sodipodi:nodetypes="ccccc"
         inkscape:connector-curvature="0"
         id="path4564"
         d="M 73.912735,159.79464 C 68.929761,147.13374 56.888252,144.4866 44.430594,144.4866 l -7.559524,-6.99256 5.669643,-5.48065 c 17.000868,-0.38978 38.304682,7.6135 31.372022,27.78125 z"
         style="fill:#d35f5f;fill-opacity:1;stroke:#a02c2c;stroke-width:2.64583325;stroke-linecap:butt;stroke-linejoin:miter;stroke-miterlimit:4;stroke-dasharray:none;stroke-opacity:1" />
      <path
         style="fill:#d35f5f;fill-opacity:1;stroke:#a02c2c;stroke-width:2.64583325;stroke-linecap:butt;stroke-linejoin:miter;stroke-miterlimit:4;stroke-dasharray:none;stroke-opacity:1"
         d="m 95.646362,158.66071 c -4.98297,-12.6609 -17.024479,-15.30804 -29.482137,-15.30804 l -7.559524,-6.99256 5.669643,-5.48065 c 17.000868,-0.38978 38.304676,7.6135 31.372018,27.78125 z"
         id="path4562"
         inkscape:connector-curvature="0"
         sodipodi:nodetypes="ccccc" />
      <path
         sodipodi:nodetypes="ccccc"
         inkscape:connector-curvature="0"
         id="path4551"
         d="m 77.240894,127.81838 c 10.610617,-6.89051 21.123988,-6.95733 31.270536,0.80181 1.71251,4.80801 1.95314,3.90209 0.26727,8.28536 -10.380427,5.55986 -22.864314,6.94847 -32.339613,-1.06908 1.91068,-5.41172 0.836119,-5.84803 0.801807,-8.01809 z"
         style="fill:#d35f5f;fill-opacity:1;stroke:#a02c2c;stroke-width:2.64583325;stroke-linecap:butt;stroke-linejoin:miter;stroke-miterlimit:4;stroke-dasharray:none;stroke-opacity:1" />
      <path
         sodipodi:nodetypes="cccc"
         inkscape:connector-curvature="0"
         id="path4555"
         d="m 103.06123,131.21473 c 9.33078,-2.83117 14.31439,2.57562 18.01186,13.97617 -4.59906,-6.87541 -14.14419,-3.67117 -19.9629,-5.36145 -6.977675,-2.4676 -2.099247,-7.37942 1.95104,-8.61472 z"
         style="fill:#d35f5f;fill-opacity:1;stroke:#a02c2c;stroke-width:2.64583325;stroke-linecap:butt;stroke-linejoin:round;stroke-miterlimit:20;stroke-dasharray:none;stroke-opacity:1" />
      <path
         style="fill:#d35f5f;fill-opacity:1;stroke:#a02c2c;stroke-width:2.64583325;stroke-linecap:butt;stroke-linejoin:miter;stroke-miterlimit:4;stroke-dasharray:none;stroke-opacity:1"
         d="m -3.9687434,158.09375 c 4.98297,-12.6609 17.0244794,-15.30804 29.4821374,-15.30804 l 7.559524,-6.99256 -5.669643,-5.48065 c -17.000868,-0.38978 -38.304679,7.6135 -31.3720184,27.78125 z"
         id="path3753"
         inkscape:connector-curvature="0"
         sodipodi:nodetypes="ccccc" />
      <path
         sodipodi:nodetypes="ccccc"
         inkscape:connector-curvature="0"
         id="path4560"
         d="M 9.2604238,164.89732 C 14.243394,152.23642 26.284903,149.58928 38.742561,149.58928 l 7.559524,-6.99256 -5.669643,-5.48065 c -17.000868,-0.38978 -38.3046791,7.6135 -31.3720182,27.78125 z"
         style="fill:#d35f5f;fill-opacity:1;stroke:#a02c2c;stroke-width:2.64583325;stroke-linecap:butt;stroke-linejoin:miter;stroke-miterlimit:4;stroke-dasharray:none;stroke-opacity:1" />
      <ellipse
         transform="rotate(-5.6324038)"
         ry="23.245535"
         rx="30.049107"
         cy="132.22789"
         cx="38.043865"
         id="path4515"
         style="fill:#d35f5f;fill-opacity:1;stroke:#a02c2c;stroke-width:2.64583333;stroke-linecap:round;stroke-miterlimit:4;stroke-dasharray:none" />
      <path
         sodipodi:nodetypes="cc"
         inkscape:connector-curvature="0"
         id="path4517"
         d="m 47.937007,137.19666 c 0.879168,-8.62692 5.667819,-14.81958 10.01637,-2.45684"
         style="fill:#d35f5f;stroke:#a02c2c;stroke-width:2.64583333;stroke-linecap:round;stroke-linejoin:miter;stroke-miterlimit:4;stroke-dasharray:none;stroke-opacity:1" />
      <path
         inkscape:connector-curvature="0"
         id="path4525"
         d="m 70.017074,77.061844 a 2.2913045,4.1621913 0 0 1 0.34313,2.184881 2.2913045,4.1621913 0 0 1 -2.291331,4.162536 2.2913045,4.1621913 0 0 1 -2.291334,-4.162536 2.2913045,4.1621913 0 0 1 0.0078,-0.284736 4.1426778,6.8153729 0 0 0 -1.105876,4.623487 4.1426778,6.8153729 0 0 0 4.142383,6.81509 4.1426778,6.8153729 0 0 0 4.142899,-6.81509 4.1426778,6.8153729 0 0 0 -2.947623,-6.523632 z"
         style="fill:#4d4d4d;fill-opacity:1;stroke:#333333;stroke-width:2.64583325;stroke-linecap:round;stroke-linejoin:round;stroke-miterlimit:4;stroke-dasharray:none;stroke-opacity:1" />
      <path
         style="fill:#4d4d4d;fill-opacity:1;stroke:#333333;stroke-width:2.64583325;stroke-linecap:round;stroke-linejoin:round;stroke-miterlimit:4;stroke-dasharray:none;stroke-opacity:1"
         d="m 38.212,78.398192 a 2.2913045,4.1621913 0 0 1 0.34313,2.184881 2.2913045,4.1621913 0 0 1 -2.291331,4.162536 2.2913045,4.1621913 0 0 1 -2.291334,-4.162536 2.2913045,4.1621913 0 0 1 0.0078,-0.284736 4.1426778,6.8153729 0 0 0 -1.105876,4.623487 4.1426778,6.8153729 0 0 0 4.142383,6.81509 4.1426778,6.8153729 0 0 0 4.142899,-6.81509 4.1426778,6.8153729 0 0 0 -2.947623,-6.523632 z"
         id="path4530"
         inkscape:connector-curvature="0" />
      <path
         style="fill:#d35f5f;fill-opacity:1;stroke:#a02c2c;stroke-width:2.64583325;stroke-linecap:butt;stroke-linejoin:miter;stroke-miterlimit:4;stroke-dasharray:none;stroke-opacity:1"
         d="m 39.627771,145.69185 c -0.121619,5.20192 0.273198,4.43258 -1.98148,7.95981 -8.301456,1.38965 -16.905259,-1.96487 -21.072888,-13.11651 1.428909,-18.90437 23.998924,-9.06134 23.054368,5.1567 z"
         id="path4566"
         inkscape:connector-curvature="0"
         sodipodi:nodetypes="cccc" />
      <path
         style="fill:#d35f5f;fill-opacity:1;stroke:#a02c2c;stroke-width:2.64583325;stroke-linecap:butt;stroke-linejoin:round;stroke-miterlimit:20;stroke-dasharray:none;stroke-opacity:1"
         d="m 36.620747,145.79008 c 9.718754,0.79044 12.370562,7.64884 11.626444,19.61087 -1.75515,-8.08345 -11.810205,-8.60551 -16.602688,-12.31314 -5.585344,-4.85602 0.755213,-7.63494 4.976244,-7.29773 z"
         id="path4568"
         inkscape:connector-curvature="0"
         sodipodi:nodetypes="cccc" />
    </g>
    <path
       sodipodi:nodetypes="cccsccccc"
       inkscape:connector-curvature="0"
       id="path4653"
       d="m -321.06869,173.3954 c 3.70943,-9.79253 4.08625,-19.43942 2.13816,-29.66692 l -15.50163,-9.6217 c -4.73778,3.81015 -5.81526,4.54825 -7.3141,8.52357 -2.67413,7.09249 4.6125,16.54966 7.58137,20.60881 2.24284,3.58545 4.04938,7.31713 5.61266,11.22532 l -0.26727,5.61266 4.54358,-3.74177 z"
       style="fill:#f9f9f9;stroke:#999999;stroke-width:2.64583325;stroke-linecap:round;stroke-linejoin:round;stroke-miterlimit:4;stroke-dasharray:none;stroke-opacity:1"
       inkscape:export-filename="C:\Dev\ggj2019\GlobalGameJam2019\Assets\Game\Sprites\crab1.png"
       inkscape:export-xdpi="96"
       inkscape:export-ydpi="96" />
    <path
       sodipodi:nodetypes="ccccc"
       inkscape:connector-curvature="0"
       id="path4655"
       d="m -301.37702,174.61531 c 9.13197,-11.02626 19.77026,-25.13486 10.69077,-38.75408 l -18.17432,9.08716 c -2.62424,10.03849 1.8636,18.74454 3.20723,28.59784 z"
       style="fill:#f9f9f9;fill-opacity:1;stroke:#999999;stroke-width:2.64583325;stroke-linecap:butt;stroke-linejoin:miter;stroke-miterlimit:4;stroke-dasharray:none;stroke-opacity:1"
       inkscape:export-filename="C:\Dev\ggj2019\GlobalGameJam2019\Assets\Game\Sprites\crab1.png"
       inkscape:export-xdpi="96"
       inkscape:export-ydpi="96" />
    <g
       id="g4699"
       transform="translate(-36.35057,19.946736)"
       inkscape:export-filename="C:\Dev\ggj2019\GlobalGameJam2019\Assets\Game\Sprites\crab1.png"
       inkscape:export-xdpi="96"
       inkscape:export-ydpi="96">
      <path
         style="fill:#d35f5f;fill-opacity:1;stroke:#a02c2c;stroke-width:2.64583325;stroke-linecap:butt;stroke-linejoin:miter;stroke-miterlimit:4;stroke-dasharray:none;stroke-opacity:1"
         d="m -90.069826,127.81838 c 10.610617,-6.89051 21.123988,-6.95733 31.270536,0.80181 1.71251,4.80801 1.95314,3.90209 0.26727,8.28536 -10.380427,5.55986 -22.864314,6.94847 -32.339613,-1.06908 1.91068,-5.41172 0.836119,-5.84803 0.801807,-8.01809 z"
         id="path4661"
         inkscape:connector-curvature="0"
         sodipodi:nodetypes="ccccc" />
      <path
         style="fill:#d35f5f;fill-opacity:1;stroke:#a02c2c;stroke-width:2.64583325;stroke-linecap:butt;stroke-linejoin:round;stroke-miterlimit:20;stroke-dasharray:none;stroke-opacity:1"
         d="m -64.24949,131.21473 c 9.33078,-2.83117 14.31439,2.57562 18.01186,13.97617 -4.59906,-6.87541 -14.14419,-3.67117 -19.9629,-5.36145 -6.977675,-2.4676 -2.099247,-7.37942 1.95104,-8.61472 z"
         id="path4663"
         inkscape:connector-curvature="0"
         sodipodi:nodetypes="cccc" />
    </g>
    <path
       sodipodi:nodetypes="ccccc"
       inkscape:connector-curvature="0"
       id="path4667"
       d="m -392.69527,177.91106 c 4.98297,-12.6609 17.02448,-15.30804 29.48214,-15.30804 l 7.55953,-6.99256 -5.66965,-5.48065 c -17.00087,-0.38978 -38.30468,7.6135 -31.37202,27.78125 z"
       style="fill:#d35f5f;fill-opacity:1;stroke:#a02c2c;stroke-width:2.64583325;stroke-linecap:butt;stroke-linejoin:miter;stroke-miterlimit:4;stroke-dasharray:none;stroke-opacity:1"
       inkscape:export-filename="C:\Dev\ggj2019\GlobalGameJam2019\Assets\Game\Sprites\crab1.png"
       inkscape:export-xdpi="96"
       inkscape:export-ydpi="96" />
    <ellipse
       transform="rotate(-5.6324038)"
       ry="23.245535"
       rx="30.049107"
       cy="134.71536"
       cx="-204.92502"
       id="ellipse4669"
       style="fill:#d35f5f;fill-opacity:1;stroke:#a02c2c;stroke-width:2.64583325;stroke-linecap:round;stroke-miterlimit:4;stroke-dasharray:none"
       inkscape:export-filename="C:\Dev\ggj2019\GlobalGameJam2019\Assets\Game\Sprites\crab1.png"
       inkscape:export-xdpi="96"
       inkscape:export-ydpi="96" />
    <path
       sodipodi:nodetypes="cc"
       inkscape:connector-curvature="0"
       id="path4671"
       d="m -148.52143,161.13461 c 0.87916,-8.62692 5.66782,-14.81958 10.01637,-2.45684"
       style="fill:none;stroke:#a02c2c;stroke-width:2.64583325;stroke-linecap:round;stroke-linejoin:miter;stroke-miterlimit:4;stroke-dasharray:none;stroke-opacity:1"
       inkscape:export-filename="C:\Dev\ggj2019\GlobalGameJam2019\Assets\Game\Sprites\crab1.png"
       inkscape:export-xdpi="96"
       inkscape:export-ydpi="96" />
    <path
       style="fill:#4d4d4d;fill-opacity:1;stroke:#333333;stroke-width:2.64583325;stroke-linecap:round;stroke-linejoin:round;stroke-miterlimit:4;stroke-dasharray:none;stroke-opacity:1"
       d="m -275.14811,148.0605 a 2.2913045,4.1621913 0 0 1 0.34313,2.18488 2.2913045,4.1621913 0 0 1 -2.29133,4.16254 2.2913045,4.1621913 0 0 1 -2.29133,-4.16254 2.2913045,4.1621913 0 0 1 0.008,-0.28474 4.1426778,6.8153729 0 0 0 -1.10588,4.62349 4.1426778,6.8153729 0 0 0 4.14238,6.81509 4.1426778,6.8153729 0 0 0 4.1429,-6.81509 4.1426778,6.8153729 0 0 0 -2.94762,-6.52363 z"
       id="path4675"
       inkscape:connector-curvature="0"
       inkscape:export-filename="C:\Dev\ggj2019\GlobalGameJam2019\Assets\Game\Sprites\crab1.png"
       inkscape:export-xdpi="96"
       inkscape:export-ydpi="96" />
    <g
       id="g4703"
       transform="translate(-110.82413,9.9627876)"
       inkscape:export-filename="C:\Dev\ggj2019\GlobalGameJam2019\Assets\Game\Sprites\crab1.png"
       inkscape:export-xdpi="96"
       inkscape:export-ydpi="96">
      <path
         sodipodi:nodetypes="cccc"
         inkscape:connector-curvature="0"
         id="path4677"
         d="m -127.68295,145.69185 c -0.12162,5.20192 0.2732,4.43258 -1.98148,7.95981 -8.30146,1.38965 -16.90526,-1.96487 -21.07289,-13.11651 1.42891,-18.90437 23.99893,-9.06134 23.05437,5.1567 z"
         style="fill:#d35f5f;fill-opacity:1;stroke:#a02c2c;stroke-width:2.64583325;stroke-linecap:butt;stroke-linejoin:miter;stroke-miterlimit:4;stroke-dasharray:none;stroke-opacity:1" />
      <path
         sodipodi:nodetypes="cccc"
         inkscape:connector-curvature="0"
         id="path4679"
         d="m -130.68997,145.79008 c 9.71875,0.79044 12.37056,7.64884 11.62644,19.61087 -1.75515,-8.08345 -11.8102,-8.60551 -16.60269,-12.31314 -5.58534,-4.85602 0.75522,-7.63494 4.97625,-7.29773 z"
         style="fill:#d35f5f;fill-opacity:1;stroke:#a02c2c;stroke-width:2.64583325;stroke-linecap:butt;stroke-linejoin:round;stroke-miterlimit:20;stroke-dasharray:none;stroke-opacity:1" />
    </g>
  </g>
</svg>
